<?xml version="1.0" encoding="utf-8" ?>
<svg xmlns="http://www.w3.org/2000/svg" xmlns:xlink="http://www.w3.org/1999/xlink" width="2329" height="2329">
	<path fill="#FFFBFD" transform="scale(2.37667 2.37667)" d="M235.867 276.786C238.058 276.919 240.216 277.143 242.393 277.405C239.785 279.563 235.133 282.883 231.895 283.881C232.855 281.462 234.546 279.047 235.867 276.786Z"/>
	<path fill="white" transform="scale(2.37667 2.37667)" d="M677.663 193.463C682.048 195 681.679 198.865 684.629 201.88C683.03 204.258 675.978 213.271 673.882 214.469C676.633 209.591 679.483 204.277 681.292 198.979L677.663 193.463Z"/>
	<path fill="#FFFBFD" transform="scale(2.37667 2.37667)" d="M698.594 234.904C705.069 231.604 719.388 230.792 725.441 234.48C722.946 237.473 720.318 237.028 716.773 236.79L716.735 236.286C716.358 230.103 702.385 234.87 698.859 235.687L698.594 234.904Z"/>
	<path fill="#FFFAFC" transform="scale(2.37667 2.37667)" d="M389.795 231.566L390.117 231.084C389.297 230.225 388.482 229.855 387.433 229.335C404.847 218.869 398.512 231.903 406.463 241.324C401.525 240.18 400.182 243.268 395.925 243.647C394.364 242.846 393.293 241.843 392.037 240.63C391.908 237.661 390.095 234.677 389.795 231.566Z"/>
	<path fill="#FFFBFD" transform="scale(2.37667 2.37667)" d="M743.014 336.035C744.545 334.467 745.093 332.4 745.758 330.364C753.176 337.115 755.199 342.604 761.029 346.522C761.765 348.821 762.113 349.891 764.322 351.1C764.632 354.339 764.207 358.199 760.114 356.044C747.689 349.501 747.702 338.016 743.014 336.035Z"/>
	<path fill="#FFFBFD" transform="scale(2.37667 2.37667)" d="M388.911 501.154C390.131 494.841 395.179 483.856 403.277 488.104C405.468 490.307 407.685 492.214 408.67 495.253C407.224 497.646 405.838 498.628 403.248 499.635C397.249 512.355 405.464 508.888 403.199 514.875C401.185 515.846 399.178 516.896 396.957 517.299C396.751 514.319 391.085 507.224 388.911 501.154Z"/>
	<path fill="#FFFBFD" transform="scale(2.37667 2.37667)" d="M403.277 488.104C405.468 490.307 407.685 492.214 408.67 495.253C407.224 497.646 405.838 498.628 403.248 499.635C402.554 495.861 402.694 491.885 403.277 488.104Z"/>
	<path fill="#FFF9FA" transform="scale(2.37667 2.37667)" d="M725.441 234.48C726.14 236.431 726.078 237.9 725.573 239.903C724.66 242.149 723.664 243.683 722.107 245.519C720.226 246.558 684.218 254.181 678.333 255.338L678.815 254.617C682.055 252.737 686.004 251.869 689.664 251.221L689.455 250.563C693.4 239.109 706.301 237.99 716.735 236.286L716.773 236.79C720.318 237.028 722.946 237.473 725.441 234.48Z"/>
	<path fill="#FFFBFD" transform="scale(2.37667 2.37667)" d="M703.579 242.894C687.244 244.381 698.678 241.302 702.403 241.507L702.556 242.392L703.579 242.894Z"/>
	<path fill="#FFFAFC" transform="scale(2.37667 2.37667)" d="M725.441 234.48C726.14 236.431 726.078 237.9 725.573 239.903C724.66 242.149 723.664 243.683 722.107 245.519C716.954 240.786 710.006 243.735 703.579 242.894L702.556 242.392L702.403 241.507C707.031 239.848 711.438 238.169 716.248 237.058L716.773 236.79C720.318 237.028 722.946 237.473 725.441 234.48Z"/>
	<path fill="white" transform="scale(2.37667 2.37667)" d="M725.441 234.48C726.14 236.431 726.078 237.9 725.573 239.903C720.579 241.346 718.392 242.478 716.248 237.058L716.773 236.79C720.318 237.028 722.946 237.473 725.441 234.48Z"/>
	<path fill="#FFFBFD" transform="scale(2.37667 2.37667)" d="M372.605 241.251C374.665 229.743 379.219 229.407 389.795 231.566C390.095 234.677 391.908 237.661 392.037 240.63C390.516 242.925 390.022 249.312 390.79 251.719C394.556 257.837 384.527 255.382 381.72 253.249C378.819 253.761 375.132 255.013 372.253 254.817C374.927 252.982 378 251.973 381.009 250.816C378.846 249.21 376.434 247.802 374.195 246.285L372.605 241.251Z"/>
	<path fill="white" transform="scale(2.37667 2.37667)" d="M677.207 335.847C684.398 327.831 684.852 311.486 693.353 305.384C705.55 296.63 698.507 321.885 696.289 326.617C695.288 328.751 693.772 330.474 693.106 332.785C689.88 335.349 681.314 336.227 677.207 335.847Z"/>
	<path fill="white" transform="scale(2.37667 2.37667)" d="M623.516 312.749C621.546 310.347 621.15 303.915 620.016 300.737C617.271 293.041 605.797 269.674 606.139 263.394C613.794 249.122 629.232 300.836 630.455 303.881C628.941 310.073 623.956 311.572 623.516 312.749Z"/>
	<path fill="#FFF9FA" transform="scale(2.37667 2.37667)" d="M570.204 503.682C578.758 498.778 593.27 486.106 603.378 488.553C608.197 493.417 564.741 537.133 566.643 524.274L565.593 523.808C564.041 520.735 568.616 506.963 570.204 503.682Z"/>
	<path fill="#FFF9FA" transform="scale(2.37667 2.37667)" d="M659.386 360.292C666.172 359.289 672.318 354.972 679.23 354.97C687.844 366.294 718.059 379.959 697.959 390.259C687.153 385.379 671.127 368.593 659.386 360.292Z"/>
	<path fill="white" transform="scale(2.37667 2.37667)" d="M339.995 551.452C352.175 554.371 353.362 566.476 359.628 575.474C352.838 551.644 374.06 559.111 383.194 574.205L382.554 575.403C379.294 568.735 366.453 554.443 359.685 564.971L359.307 565.551C359.232 565.667 359.161 565.786 359.088 565.904C359.133 577.115 365.404 575.903 367.874 584.073C368.962 587.67 364.746 589.187 364.526 592.044C364.176 596.608 373.827 606.463 374.714 609.602L374.142 610.226C368.034 605.198 365.268 594.099 359.213 587.548C345.18 586.436 319.592 557.908 339.995 551.452Z"/>
	<path fill="#FFF9FA" transform="scale(2.37667 2.37667)" d="M627.138 556.451C648.604 567.728 621.741 586.073 614.415 594.422C608.698 600.937 602.779 611.667 598.419 619.292C596.581 611.24 611.214 608.117 608.539 593.107C607.749 588.678 612.934 560.007 599.703 561.895C590.102 563.266 585.006 606.632 559.147 609.173C555.986 609.483 545.883 609.766 547.939 604.421C549.339 606.507 550.927 607.555 553.437 607.977C583.012 612.95 588.799 560.578 600.178 560.9C605.875 561.061 609.16 569.25 609.998 573.81C614.87 566.247 618.197 559.714 627.138 556.451Z"/>
	<path fill="#FFF9FA" transform="scale(2.37667 2.37667)" d="M705.823 347.871C708.728 347.461 723.638 345.367 725.608 345.485C730.513 357.131 743.865 378.376 746.385 388.947C747.343 392.964 742.261 400.715 738.063 397.787C732.456 393.876 730.166 383.903 726.563 378.298C719.9 367.932 711.778 358.72 705.823 347.871Z"/>
	<path fill="#FFFBFD" transform="scale(2.37667 2.37667)" d="M759.096 316.858C760.798 312.076 767.624 296.362 771.177 308.869L771.809 309.135C774.865 307.718 777.076 304.456 780.503 307.439C783.211 316.51 791.576 317.934 788.695 324.064C786.261 325.853 778.541 326.889 782.674 331.364C785.21 332.563 788.819 331.45 790.109 334.426C792.101 339.023 783.779 350.299 779.944 351.179C776.099 352.06 769.669 348.108 766.019 346.62L764.322 351.1C762.113 349.891 761.765 348.821 761.029 346.522C755.199 342.604 753.176 337.115 745.758 330.364C746.929 328.1 748.388 325.945 749.725 323.773C747.865 321.301 746.406 320.12 743.62 318.714C748.278 316.759 754.098 316.023 759.096 316.858Z"/>
	<path fill="#FFFBFD" transform="scale(2.37667 2.37667)" d="M440.426 141.327C441.094 131.39 444.75 127.964 452.726 136.387C465.662 136.291 464.8 143.454 459.649 153.198C485.963 148.405 469.881 174.574 456.486 174.727C453.199 174.765 454.139 174.95 452.698 176.932C452.211 175.735 438.346 172.819 435.842 173.463C427.366 171.988 422.378 168.92 418.72 161.324C421.813 149.902 424.35 156.895 431.391 151.647C427.247 137.258 433.942 127.992 440.426 141.327Z"/>
	<path fill="#FFFBFD" transform="scale(2.37667 2.37667)" d="M209.446 243.978C208.333 239.46 212.247 232.368 217.511 235.44C218.814 236.2 219.632 237.668 220.92 238.451L222.103 237.703C222.394 230.714 223.531 229.064 230.679 228.388C232.765 229.444 234.733 230.507 236.662 231.845C245.682 229.537 243.768 236.322 243.477 242.758C252.076 244.044 256.655 243.817 258.583 253.03C250.27 281.562 207.993 278.817 207.908 269.647C208.268 264.828 202.623 266.722 203.977 258.751L205.824 253.302C209.41 253.055 212.519 251.766 215.827 250.466C212.584 248.76 210.674 247.546 209.446 243.978Z"/>
	<path fill="#FFFBFD" transform="scale(2.37667 2.37667)" d="M209.446 243.978L210.286 243.883C212.126 247.323 214.902 249.019 218.401 250.324C225.251 242.165 227.391 242.884 230.505 253.102C227.869 254.758 224.773 255.473 221.815 256.357C219.674 258.764 217.74 261.463 215.496 263.752C213.17 266.114 210.254 267.413 207.908 269.647C208.268 264.828 202.623 266.722 203.977 258.751L205.824 253.302C209.41 253.055 212.519 251.766 215.827 250.466C212.584 248.76 210.674 247.546 209.446 243.978Z"/>
	<path fill="#FFFAFC" transform="scale(2.37667 2.37667)" d="M203.977 258.751C208.106 261.997 213.185 258.895 215.496 263.752C213.17 266.114 210.254 267.413 207.908 269.647C208.268 264.828 202.623 266.722 203.977 258.751Z"/>
	<defs>
		<linearGradient id="gradient_0" gradientUnits="userSpaceOnUse" x1="287.9938" y1="390.88684" x2="224.24902" y2="412.52066">
			<stop offset="0" stop-color="#FFFCFC"/>
			<stop offset="1" stop-color="#FFFBFC"/>
		</linearGradient>
	</defs>
	<path fill="url(#gradient_0)" transform="scale(2.37667 2.37667)" d="M241.871 389.209C240.1 361.545 257.738 387.386 258.589 393.788C268.068 394.846 277.254 392.555 286.64 392.813C289.297 396.188 295.005 403.947 292.852 407.925L292.217 407.835C290.537 407.607 289.417 407.314 288.025 408.415C282.73 407.939 263.859 404.263 263.027 413.286L265.717 415.933C266.564 418.798 265.784 419.094 263.549 417.583C258.911 418.919 260.617 431.034 250.349 432.688C238.424 434.609 236.965 429.941 236.239 420.773C228.551 420.934 221.417 420.802 224.202 409.21C225.022 405.797 230.296 403.537 233.106 401.601C228.69 397.932 220.62 388.629 230.377 385.336C233.892 384.15 238.794 387.601 241.871 389.209Z"/>
	<defs>
		<linearGradient id="gradient_1" gradientUnits="userSpaceOnUse" x1="243.36137" y1="323.59177" x2="255.70982" y2="266.93488">
			<stop offset="0" stop-color="#FFFAFC"/>
			<stop offset="1" stop-color="#FFFDFD"/>
		</linearGradient>
	</defs>
	<path fill="url(#gradient_1)" transform="scale(2.37667 2.37667)" d="M253.521 290.901C258.53 286.093 271.703 271.468 278.021 271.473C284.383 271.477 283.848 279.282 280.276 283.913C284.82 288.075 282.369 299.12 280.079 303.781C274.854 307.623 273.464 308.438 275.338 314.771C271.944 325.231 268.354 322.118 259.69 319.145C260.925 320.821 262.248 322.477 263.35 324.243C252.697 323.318 260.564 330.494 258.168 334.874C257.036 332.55 256.832 329.075 255.071 327.202C250.626 322.475 202.487 319.524 215.574 305.454C220.527 300.13 231.23 300.286 237.955 300.033C234.845 297.111 232.743 294.388 230.94 290.493C231.094 288.216 231.424 286.111 231.895 283.881C235.133 282.883 239.785 279.563 242.393 277.405C249.673 280.186 251.762 283.804 253.521 290.901Z"/>
	<path fill="#FFFBFD" transform="scale(2.37667 2.37667)" d="M709.205 125.291C709.993 122.119 711.679 114.834 716.432 116.698C725.953 120.432 716.614 128.063 731.711 123.978C734.936 128.514 737.047 131.454 737.786 137.054C735.192 141.523 732.374 145.97 730.163 150.641C753.864 147.389 736.876 161.662 725.236 166.969C713.548 172.298 705.026 177.906 699.774 190.019L700.587 190.022C709.814 190.009 721.65 185.297 730.434 187.068C740.003 188.998 739.107 201.362 730.84 204.252C722.303 207.237 714.28 207.898 705.221 211.766L704.955 211.436L705.02 210.922C712.466 206.741 726.908 207.148 723.121 200.014C716.753 202.599 708.079 203.331 701.23 204.085C696.707 200.883 688.661 193.653 684.629 201.88C681.679 198.865 682.048 195 677.663 193.463C674.684 189.837 660.21 161.427 660.994 157.146C663.918 141.188 686.993 173.075 689.755 175.575C695.636 169.868 698.865 168.195 700.731 159.876L700.675 160.031C697.004 154.279 691.001 150.713 687.53 144.859C689.845 139.937 692.476 138.145 697.243 135.856C690.791 120.01 697.991 121.684 709.205 125.291Z"/>
	<path fill="#FFFBFD" transform="scale(2.37667 2.37667)" d="M706.519 152.674C709.121 152.55 714.123 152.81 716.04 154.683C714.806 156.302 713.56 157.565 713.333 159.66L713.132 159.752C711.653 158.194 705.271 153.656 704.939 153.058L706.519 152.674Z"/>
	<path fill="white" transform="scale(2.37667 2.37667)" d="M693.584 583.512C692.715 575.514 692.068 567.489 694.092 559.586C695.732 553.18 697.922 533.057 709.595 541.057C712.675 543.168 710.75 566.589 710.362 571.123C716.957 565.436 724.736 562.6 731.755 557.711C731.506 554.197 729.815 546.364 732.517 543.636C736.616 539.496 740.441 544.047 741.549 547.992C744.422 545.213 746.794 542.686 750.249 540.572C754.9 543.167 760.14 547.902 763.848 551.734C761.27 556.158 758.042 559.943 756.205 564.796C759.923 568.155 763.426 566.549 765.121 569.164C765.259 572.919 760.838 581.694 756.253 581.775C737.78 582.102 735.109 575.255 717.266 592.456C723.392 600.735 740.965 612.546 739.369 621.912C736.585 638.247 710.583 618.321 702.503 616.126L701.743 615.915C701.591 615.874 701.438 615.837 701.285 615.798C690.26 618.861 691.165 627.072 685.14 629.993C682.868 631.096 671.74 619.767 668.849 618.293C666.155 619.227 662.722 620.918 659.946 621.313L659.545 620.623C675.968 612.222 663.775 618.663 673.452 609.053C676.896 605.634 699.829 591.478 695.131 586.045C692.587 583.103 686.718 589.402 683.277 588.83C686.564 586.765 690.08 585.168 693.584 583.512Z"/>
	<path fill="white" transform="scale(2.37667 2.37667)" d="M576.157 472.819C591.749 476.779 605.453 473.429 619.658 466.407C633.434 459.596 680.977 427.938 689.757 416.903C703.064 431.297 723.115 438.23 736.909 451.941C713.597 468.735 686.954 477.488 658.431 481.104C643.787 482.961 585.47 490.064 576.157 472.819Z"/>
	<path fill="white" transform="scale(2.37667 2.37667)" d="M435.842 173.463C438.346 172.819 452.211 175.735 452.698 176.932C453.322 186.219 453.221 195.544 453.7 204.846C459.452 202.721 477.538 190.929 479.915 192.159C493.314 199.093 457.261 221.025 453.942 224.266C459.752 247.458 451.79 252.358 452.097 271.902C458.156 268.062 472.006 255.929 479.149 257.727C494.509 261.596 452.906 289.716 450.247 291.61C450.216 295.534 450.189 299.456 450.236 303.38C459.07 304.122 467.934 305.848 476.735 306.419C483.62 308.381 478.85 325.956 478.04 332.839L477.93 336.356C479.398 338.545 480.487 340.753 480.97 343.367C479.172 344.53 475.254 345.969 473.967 347.382C475.919 358.861 457.139 366.32 448.299 369.285C446.415 362.465 435.7 363.307 433.836 365.583L433.456 370.553C432.96 362.164 429.348 366.201 420.712 360.03C409.258 351.846 392.457 338.338 415.348 331.821C400.033 305.209 384.924 307.912 376.373 294.867C371.353 287.21 394.208 288.481 397.478 287.82L398.109 287.687C397.509 283.989 396.922 280.31 396.561 276.58C389.293 272.996 379.604 271.54 373.953 265.593C372.71 262.025 367.649 257.629 372.253 254.817C375.132 255.013 378.819 253.761 381.72 253.249C384.527 255.382 394.556 257.837 390.79 251.719C390.022 249.312 390.516 242.925 392.037 240.63C393.293 241.843 394.364 242.846 395.925 243.647C400.182 243.268 401.525 240.18 406.463 241.324C409.627 244.424 410.364 242.52 414.098 242.003L414.402 241.813C418.701 241.151 431.588 252.841 435.706 255.788C451.068 215.731 406.061 213.168 410.397 195.539C412.018 188.944 430.893 203.007 436.299 205.735C436.995 195.366 436.411 183.893 435.842 173.463ZM415.348 331.821C392.457 338.338 409.258 351.846 420.712 360.03C429.348 366.201 432.96 362.164 433.456 370.553L433.836 365.583C435.7 363.307 446.415 362.465 448.299 369.285C457.139 366.32 475.919 358.861 473.967 347.382C475.254 345.969 479.172 344.53 480.97 343.367C480.487 340.753 479.398 338.545 477.93 336.356L478.04 332.839C475.844 332.331 473.608 332.041 471.379 331.711C468.086 329.751 451.399 322.761 450.086 322.812C447.886 324.581 448.081 331.023 444.241 330.588C440.746 330.193 436.789 325.811 434.805 323.171C434.261 326.577 433.26 329.348 431.666 332.373C428.827 328.855 426.182 325.166 423.723 321.373C423.53 326.29 429.78 328.788 427.483 333.855L425.636 335.167C425.559 333.958 425.963 332.936 426.331 331.805C424.221 333.009 424.017 335.683 421.849 336.845C419.362 335.78 418.123 332.923 415.348 331.821ZM416.709 256.577C414.676 262.959 410.459 263.563 407.705 272.464C408.617 276.818 410.017 281.089 410.825 285.446C417.333 286.626 424.093 287.52 430.3 289.892L436.722 292.336C438.055 285.348 437.254 278.89 436.275 271.898C430.872 266.439 423.899 259.6 416.709 256.577ZM416.277 302.954C417.393 309.634 420.504 315.479 423.723 321.373C426.182 325.166 428.827 328.855 431.666 332.373C433.26 329.348 434.261 326.577 434.805 323.171C434.973 316.424 435.504 309.695 435.721 302.949C427.954 300.878 424.039 300.117 416.277 302.954Z"/>
	<path fill="#FFFBFD" transform="scale(2.37667 2.37667)" d="M390.79 251.719C390.022 249.312 390.516 242.925 392.037 240.63C393.293 241.843 394.364 242.846 395.925 243.647L395.677 244.237C383.415 239.696 403.164 256.515 382.255 257.962C379.204 258.174 364.991 253.397 375.118 261.27C378.925 261.259 395.73 259.832 397.752 260.58C391.767 262.945 379.116 259.235 374.891 263.016L373.953 265.593C372.71 262.025 367.649 257.629 372.253 254.817C375.132 255.013 378.819 253.761 381.72 253.249C384.527 255.382 394.556 257.837 390.79 251.719Z"/>
	<path fill="#FFFBFD" transform="scale(2.37667 2.37667)" d="M395.925 243.647C400.182 243.268 401.525 240.18 406.463 241.324C409.627 244.424 410.364 242.52 414.098 242.003C412.883 244.772 409.535 245.592 408.793 248.107C408.145 250.303 408.953 256.305 405.1 252.005C402.509 249.114 397.617 247.176 395.677 244.237L395.925 243.647Z"/>
	<path fill="#FFFBFD" transform="scale(2.37667 2.37667)" d="M415.348 331.821C418.123 332.923 419.362 335.78 421.849 336.845C424.017 335.683 424.221 333.009 426.331 331.805C425.963 332.936 425.559 333.958 425.636 335.167L427.483 333.855C429.78 328.788 423.53 326.29 423.723 321.373C426.182 325.166 428.827 328.855 431.666 332.373C433.26 329.348 434.261 326.577 434.805 323.171C436.789 325.811 440.746 330.193 444.241 330.588C448.081 331.023 447.886 324.581 450.086 322.812C451.399 322.761 468.086 329.751 471.379 331.711C473.608 332.041 475.844 332.331 478.04 332.839L477.93 336.356C479.398 338.545 480.487 340.753 480.97 343.367C479.172 344.53 475.254 345.969 473.967 347.382C475.919 358.861 457.139 366.32 448.299 369.285C446.415 362.465 435.7 363.307 433.836 365.583L433.456 370.553C432.96 362.164 429.348 366.201 420.712 360.03C409.258 351.846 392.457 338.338 415.348 331.821ZM477.93 336.356L477.01 337.019C474.423 338.461 472.276 340.597 470.1 342.589C471.318 343.998 472.588 346.277 473.967 347.382C475.254 345.969 479.172 344.53 480.97 343.367C480.487 340.753 479.398 338.545 477.93 336.356Z"/>
	<path fill="#FFF9FA" transform="scale(2.37667 2.37667)" d="M471.379 331.711C473.608 332.041 475.844 332.331 478.04 332.839L477.93 336.356L477.01 337.019C474.589 335.756 473.128 333.755 471.379 331.711Z"/>
	<defs>
		<linearGradient id="gradient_2" gradientUnits="userSpaceOnUse" x1="717.9375" y1="669.2373" x2="327.14841" y2="260.11429">
			<stop offset="0" stop-color="#ECECEC"/>
			<stop offset="1" stop-color="white"/>
		</linearGradient>
	</defs>
	<path fill="url(#gradient_2)" transform="scale(2.37667 2.37667)" d="M660.107 244.672C661.175 227.846 629.534 201.328 640.442 191.98C655.748 189.838 661.696 209.088 672.983 215.412L673.882 214.469C675.978 213.271 683.03 204.258 684.629 201.88C688.661 193.653 696.707 200.883 701.23 204.085C708.079 203.331 716.753 202.599 723.121 200.014C726.908 207.148 712.466 206.741 705.02 210.922L704.955 211.436L705.221 211.766C697.577 215.949 682.062 234.376 683.979 238.742C688.847 237.5 693.669 235.873 698.594 234.904L698.859 235.687C702.385 234.87 716.358 230.103 716.735 236.286C706.301 237.99 693.4 239.109 689.455 250.563L689.664 251.221C686.004 251.869 682.055 252.737 678.815 254.617L678.333 255.338C669.105 262.239 662.578 271.87 657.847 282.277C666.38 278.841 695.885 270.737 706.273 268.647C717.633 266.362 707.579 277.881 703.981 280.866C697.581 286.173 664.095 298.304 654.82 299.81L654.846 299.6C645.071 310.209 640.083 322.292 634.608 335.31C641.612 329.326 662.507 307.844 669.887 306.642C674.256 308.824 664.868 322.194 663.065 324.693C652.603 339.196 634.811 344.735 627.643 357.713L658.464 344.023C662.61 342.142 673.458 336.374 677.207 335.847C681.314 336.227 689.88 335.349 693.106 332.785C701.754 330.316 711.819 327.473 719.63 322.989C721.301 320.172 722.397 316.865 723.729 313.863C725.855 307.906 733.3 287.749 738.334 284.908C740.873 283.476 747.014 289.325 747.719 291.276C747.785 293.448 743.421 299.775 742.318 302.496C740.004 308.208 739.117 314.581 738.042 320.626L743.62 318.714C746.406 320.12 747.865 321.301 749.725 323.773C748.388 325.945 746.929 328.1 745.758 330.364C745.093 332.4 744.545 334.467 743.014 336.035C738.214 337.812 733.166 342.051 728.83 343.312C727.796 344.25 726.985 345.077 725.608 345.485C723.638 345.367 708.728 347.461 705.823 347.871C696.485 349.399 687.834 350.828 679.23 354.97C672.318 354.972 666.172 359.289 659.386 360.292C637.509 363.752 615.645 379.735 607.196 400.691C635.574 386.721 667.537 390.738 691.807 410.747C691.218 412.791 690.746 415.015 689.757 416.903C680.977 427.938 633.434 459.596 619.658 466.407C605.453 473.429 591.749 476.779 576.157 472.819C572.845 480.078 571.966 495.146 570.204 503.682C568.616 506.963 564.041 520.735 565.593 523.808C562.189 537.615 559.308 551.06 558.327 565.276C568.598 555.773 600.352 525.04 612.416 523.116C616.241 523.875 619.599 530.037 618.847 533.631C617.776 538.752 555.181 585.365 547.939 604.421C545.883 609.766 555.986 609.483 559.147 609.173C585.006 606.632 590.102 563.266 599.703 561.895C612.934 560.007 607.749 588.678 608.539 593.107C611.214 608.117 596.581 611.24 598.419 619.292C597.854 620.902 596.984 622.484 596.264 624.035C598.941 624.929 601.632 625.773 604.327 626.612C652.013 616.596 658.293 552.588 667.197 548.967C670.388 547.669 674.017 550.097 675.02 553.161C677.521 560.804 656.146 593.572 650.766 605.031C662.283 600.838 672.653 594.827 683.277 588.83C686.718 589.402 692.587 583.103 695.131 586.045C699.829 591.478 676.896 605.634 673.452 609.053C663.775 618.663 675.968 612.222 659.545 620.623L659.946 621.313L650.587 626.808C666.078 637.269 712.532 640.555 715.998 648.68C716.014 663.571 649.245 641.052 631.009 630.358C622.124 633.936 614.014 638.169 606.374 643.949L607.014 644.33C611.073 646.716 615.577 647.988 620.013 649.485L644.716 657.621C650.331 659.472 665.29 662.865 666.783 669.939C667.898 675.221 662.434 677.266 658.299 675.979C636.063 669.058 614.915 659.057 591.582 652.583C580.12 657.704 568.938 663.965 558.445 670.847C600.38 668.849 612.596 677.481 626.124 713.777C629.984 722.766 637.984 759.248 631.132 760.639C623.455 762.197 608.402 756.711 598.566 756.428C562.452 769.12 538.724 762.738 505.472 746.711C498.602 743.4 492.711 738.359 485.694 735.414C485.045 746.54 491.547 759.568 494.519 770.476C503.657 804.018 510.536 838.62 506.866 873.538C502.751 873.457 498.639 873.373 494.526 873.217C494.483 844.803 493.54 817.897 485.888 790.185C480.792 809.666 476.681 852.237 479.927 872.476C476.322 873.636 472.831 874.039 469.052 874.032C462.814 852.259 468.186 812.218 472.517 789.989C477.162 766.143 482.538 751.118 465.632 730.234C458.907 733.069 453.093 737.624 446.803 741.253C411.136 761.831 389.173 775.251 349.264 760.638C339.426 757.428 333.383 764.435 328.014 763.083C318.407 760.663 327.714 720.366 331.308 709.785C340.995 674.316 360.336 672.637 396.508 669.355C386.194 664.768 376.603 659.633 367.801 652.47C361.871 655.726 317.157 676.537 310.913 676.138C304.747 675.744 299.828 671.205 306.137 666.926C316.706 659.758 339.361 649.729 351.436 643.929C343.979 639.439 337.711 633.279 330.28 628.697C313.85 640.946 279.705 658.633 260.875 654.84C253.774 648.742 255.948 647.064 263.958 645.034C282.141 640.425 301.903 634.905 315.693 621.556C308.899 614.893 300.539 610.551 293.079 604.732C290.958 609.645 288.973 615.068 284.616 618.482C276.131 625.129 245.99 634.268 235.372 620.306C246.151 610.704 256.059 601.774 262.852 588.787C254.245 584.511 251.141 580.469 240.64 580.405C236.601 582.336 221.767 583.825 218.783 581.009C208.869 571.65 217.774 568.213 224.478 564.399C219.869 558.444 213.073 552.431 221.313 546.71L229.246 550.853L229.233 540.456C247.292 540.436 241.978 544.831 251.62 555.363C252.402 556.218 266.471 566.095 267.093 566.128C269.031 563.265 257.232 552.461 259.693 541.293C260.562 537.345 263.463 536.593 266.898 538.176C275.202 542.004 272.561 556.674 275.676 563.862C282.016 566.896 280.299 574.966 279.653 580.772C292.934 590.2 305.461 599.779 320.133 606.98C318.342 584.373 299.152 572.2 298.165 550.834C298.004 547.352 297.903 541.065 302.761 541.258C308.944 544.401 317.745 571.066 321.266 578.248C327.946 591.872 336.679 604.533 341.45 619.027C349.127 624.924 356.147 631.777 364.526 636.68C368.625 628.935 379.28 616.993 374.142 610.226L374.714 609.602C373.827 606.463 364.176 596.608 364.526 592.044C364.746 589.187 368.962 587.67 367.874 584.073C365.404 575.903 359.133 577.115 359.088 565.904C359.161 565.786 359.232 565.667 359.307 565.551L359.685 564.971C366.453 554.443 379.294 568.735 382.554 575.403L383.194 574.205L383.519 574.722C385.452 577.869 386.467 585.864 389.44 587.645C391.813 586.851 394.083 582.758 397.234 581.36C403.253 578.688 405.933 582.631 411.715 577.656C410.171 574.212 410.047 570.415 408.233 566.907C398.4 547.895 378.084 525.274 364.501 508.754C354.672 496.798 345.345 484.447 335.53 472.484C312.386 475.048 288.305 470.535 265.98 464.73C227.561 454.74 250.829 451.326 263.439 437.843C267.913 433.059 266.917 425.354 266.661 419.323L271.892 420.95L272.168 421.319C274.491 424.372 275.699 427.837 277.58 431.134C283.646 441.761 314.597 452.542 326.418 455.688C324.067 451.469 320.74 447.706 318.171 443.573C310.787 431.693 302.802 409.92 288.025 408.415C289.417 407.314 290.537 407.607 292.217 407.835L292.852 407.925C295.005 403.947 289.297 396.188 286.64 392.813L286.797 392.106C283.048 378.219 265.146 360.917 252.991 354.871C248.692 352.732 244.24 350.891 240.267 348.156C243.403 344.513 247.022 342.978 251.407 341.38C253.463 340.915 257.33 340.756 258.667 339.245C258.112 337.69 257.519 336.441 258.168 334.874C260.564 330.494 252.697 323.318 263.35 324.243C269.113 334.553 276.294 344.489 281.474 355.058C290.424 343.594 290.046 318.939 304.999 300.306C314.522 311.651 307.13 319.177 304.215 331.794C301.189 344.892 299.968 376.553 305.78 374.764C316.722 371.397 312.416 344.061 317.605 340.68C324.31 341.146 329.902 355.16 329.435 360.552C328.051 376.504 320.336 389.77 308.656 400.161C313.408 409.633 319.096 418.795 324.981 427.61C329.148 406.834 337.382 377.346 350.531 359.996C371.384 371.373 362.224 409.075 356.532 427.35C351.128 444.701 345.863 456.982 354.822 475.15C359.437 484.508 387.179 515.595 394.6 523.718C395.561 521.59 396.299 519.537 396.957 517.299C399.178 516.896 401.185 515.846 403.199 514.875C405.464 508.888 397.249 512.355 403.248 499.635C405.838 498.628 407.224 497.646 408.67 495.253C410.512 486.665 419.661 487.914 426.37 488.678C429.395 491.159 432.682 493.531 436.106 495.426L436.792 491.329C438.32 472.647 437.089 446.476 436.651 427.478C423.92 417.778 401.34 407.023 391.175 397.58C386.06 392.828 392.502 386.911 392.955 381.676C394.017 369.373 394.867 373.633 402.765 382.829C411.966 393.54 424.444 400.479 435.911 408.404C436.118 395.662 434.267 383.209 433.456 370.553L433.836 365.583C435.7 363.307 446.415 362.465 448.299 369.285C457.139 366.32 475.919 358.861 473.967 347.382C475.254 345.969 479.172 344.53 480.97 343.367C480.487 340.753 479.398 338.545 477.93 336.356L478.04 332.839C478.85 325.956 483.62 308.381 476.735 306.419C484.406 306.537 492.437 306.365 499.977 307.888C537.881 320.379 574.623 371.558 584.676 411.066C594.887 396.641 605.26 372.779 612.73 356.196C580.632 333.504 554.498 276.41 548.066 238.06C546.338 227.759 543.574 210.968 548.548 201.548C553.27 209.84 560.029 216.891 565.573 224.651C580.397 245.404 615.393 296.066 621.282 321.299C622.319 318.517 623.482 315.766 623.516 312.749C623.956 311.572 628.941 310.073 630.455 303.881C633.953 295.658 640.273 288.802 644.03 278.613C638.119 272.581 609.591 228.144 609.997 221.648C610.212 218.208 615.273 218.559 617.689 218.448C626.289 226.456 637.19 246.566 648.546 258.281C652.572 253.962 656.816 249.581 660.107 244.672ZM450.157 445.553C449.35 455.023 452.104 466.483 451.185 473.96C450.488 477.171 449.866 480.017 448.646 483.076C449.197 484.796 449.774 488.029 451.216 489.044C452.225 492.099 449.743 496.186 449.987 499.521C450.286 503.621 453.784 503.576 452.517 508.229C456.081 508.769 459.844 508.149 463.396 507.671C463.062 509.511 461.927 510.467 460.697 511.725L460.387 512.037C463.407 513.282 469.216 514.887 472.716 515.185C498.915 518.674 502.961 556.386 496.584 576.34C505.023 578.154 508.435 576.105 507.629 586.206C506.22 588.53 504.582 590.189 502.441 591.844C482.61 592.976 462.262 580.588 448.421 567.276C448.731 608.769 465.772 648.734 474.032 689.16C475.848 698.049 477.048 706.275 480.637 714.722C485.324 705.938 491.419 697.813 495.848 688.905C506.567 667.34 524.599 616.744 529.185 593.504C515.404 583.56 510.917 567.214 505.912 551.863C498.766 529.95 491.152 509.341 479.084 489.601C476.211 484.903 460.317 466.165 471.326 466.646C488.218 467.384 520.225 481.739 531.344 494.073C539.785 503.435 546.912 519.241 549.825 531.342C551.865 523.252 553.217 514.411 553.69 506.067C554.068 504.027 554.085 502.085 554.068 500.021C558.308 486.106 560.531 471.707 563.705 457.526C564.246 455.107 567.794 445.86 567.648 444.801C565.576 444.409 541.422 451.091 536.406 451.998C500.468 458.492 482.612 454.594 450.157 445.553ZM592.208 604.782C573.355 621.922 561.009 623.265 536.989 616.246C531.255 628.78 528.821 642.741 524.371 655.783C521.717 663.562 517.519 670.688 515.401 678.687C526.578 675.247 581.771 641.766 589.267 635.534C582.506 621.93 594.216 616.558 592.208 604.782ZM408.67 495.253C407.224 497.646 405.838 498.628 403.248 499.635C397.249 512.355 405.464 508.888 403.199 514.875C401.185 515.846 399.178 516.896 396.957 517.299C396.299 519.537 395.561 521.59 394.6 523.718C396.146 525.602 398.131 526.941 399.695 528.764C402.775 533.08 411.356 551.032 416.599 550.91C422.443 549.151 429.778 550.045 435.883 549.719C436.087 543.734 436.122 537.85 435.504 531.885C437.581 526.279 436.885 499.067 436.792 491.329L436.106 495.426C432.682 493.531 429.395 491.159 426.37 488.678C419.661 487.914 410.512 486.665 408.67 495.253ZM393.866 609.848C392.133 614.167 378.528 642.196 377.624 643.309C394.921 656.258 418.846 669.424 437.685 682.377C430.363 659.813 422.456 637.381 416.979 614.266C406.093 612.59 407.167 616.599 393.866 609.848ZM473.967 347.382C475.919 358.861 457.139 366.32 448.299 369.285C448.52 378.716 448.933 388.155 449.391 397.577C455.509 391.803 461.792 385.408 466.685 378.556C482.371 356.594 475.616 361.267 485.91 382.147C480.121 389.851 474.329 397.205 467.667 404.18C463.38 408.669 448.153 419.994 449.748 427.069C454.435 428.588 461.76 419.205 465.799 417.062C472.691 413.405 495.947 415.098 504.268 415.183C496.856 407.19 492.44 397.693 488.671 387.561C487.411 385.199 482.385 350.566 480.97 343.367C479.172 344.53 475.254 345.969 473.967 347.382ZM431.877 566.173C428.386 566.913 425.197 567.731 421.905 569.15C429.265 605.232 431.58 647.878 454.963 678.023C456.446 679.838 457.91 681.666 459.494 683.395C453.504 645.954 438.382 614.678 436.238 574.335C436.022 570.283 437.602 565.419 431.877 566.173Z"/>
	<path fill="white" transform="scale(2.37667 2.37667)" d="M258.667 339.245C261.893 340.474 263.074 345.696 263.817 348.672C259.927 345.603 255.108 344.234 251.407 341.38C253.463 340.915 257.33 340.756 258.667 339.245Z"/>
	<path fill="white" transform="scale(2.37667 2.37667)" d="M452.517 508.229C456.081 508.769 459.844 508.149 463.396 507.671C463.062 509.511 461.927 510.467 460.697 511.725L460.387 512.037C451.367 520.482 446.883 511.665 452.517 508.229Z"/>
	<path fill="white" transform="scale(2.37667 2.37667)" d="M723.729 313.863C725.855 307.906 733.3 287.749 738.334 284.908C740.873 283.476 747.014 289.325 747.719 291.276C747.785 293.448 743.421 299.775 742.318 302.496C740.004 308.208 739.117 314.581 738.042 320.626L743.62 318.714C746.406 320.12 747.865 321.301 749.725 323.773C748.388 325.945 746.929 328.1 745.758 330.364C745.093 332.4 744.545 334.467 743.014 336.035C738.214 337.812 733.166 342.051 728.83 343.312L728.651 342.651C732.471 338.03 743.593 337.813 744.207 330.754C745.061 320.928 730.18 331.626 742.776 297.593C744.148 293.885 747.548 286.796 739.118 285.782C734.545 287.53 726.907 308.798 724.576 313.957L723.729 313.863Z"/>
	<path fill="white" transform="scale(2.37667 2.37667)" d="M229.233 540.456C247.292 540.436 241.978 544.831 251.62 555.363C252.402 556.218 266.471 566.095 267.093 566.128C269.031 563.265 257.232 552.461 259.693 541.293C260.562 537.345 263.463 536.593 266.898 538.176C275.202 542.004 272.561 556.674 275.676 563.862C273.877 565.824 271.266 566.455 269.42 568.236C268.153 569.459 268.635 572.147 267.143 572.675L267.44 571.887L267.119 571.825L267.584 568.923C264.322 566.06 246.181 553.38 245.929 551.136C245.756 549.601 246.25 547.751 245.315 546.44L244.455 546.002C238.225 542.765 239.011 541.992 231.309 541.447L230.544 541.926C227.231 557.032 243.377 566.738 255.528 568.234C257.156 568.435 258.54 568.016 260.015 568.797C255.907 574.3 234.887 560.33 231.599 556.793C230.304 555.4 230.148 553.257 228.682 551.985C227.763 551.188 218.804 545.771 218.1 550.487C217.269 556.045 227.682 563.36 227.41 565.845C226.999 569.606 209.397 568.587 217.695 577.744C223.815 584.498 232.424 580.122 239.988 579.686L240.555 579.997L240.64 580.405C236.601 582.336 221.767 583.825 218.783 581.009C208.869 571.65 217.774 568.213 224.478 564.399C219.869 558.444 213.073 552.431 221.313 546.71L229.246 550.853L229.233 540.456Z"/>
	<path fill="#FFFBFD" transform="scale(2.37667 2.37667)" d="M383.194 574.205L383.519 574.722C385.452 577.869 386.467 585.864 389.44 587.645C391.813 586.851 394.083 582.758 397.234 581.36C403.253 578.688 405.933 582.631 411.715 577.656C415.872 583.302 416.477 606.575 416.979 614.266C406.093 612.59 407.167 616.599 393.866 609.848C394.13 599.216 391.181 602.549 382.4 597.53L381.837 597.202C376.989 589.772 383.946 590.325 384.256 583.911C384.393 581.063 382.614 578.356 382.554 575.403L383.194 574.205Z"/>
	<defs>
		<linearGradient id="gradient_3" gradientUnits="userSpaceOnUse" x1="416.26495" y1="541.24457" x2="420.10184" y2="488.79538">
			<stop offset="0" stop-color="#FFFBFC"/>
			<stop offset="1" stop-color="#FFFBFD"/>
		</linearGradient>
	</defs>
	<path fill="url(#gradient_3)" transform="scale(2.37667 2.37667)" d="M408.67 495.253C410.512 486.665 419.661 487.914 426.37 488.678C429.395 491.159 432.682 493.531 436.106 495.426L436.792 491.329C436.885 499.067 437.581 526.279 435.504 531.885C436.122 537.85 436.087 543.734 435.883 549.719C429.778 550.045 422.443 549.151 416.599 550.91C411.356 551.032 402.775 533.08 399.695 528.764C398.131 526.941 396.146 525.602 394.6 523.718C395.561 521.59 396.299 519.537 396.957 517.299C399.178 516.896 401.185 515.846 403.199 514.875C405.464 508.888 397.249 512.355 403.248 499.635C405.838 498.628 407.224 497.646 408.67 495.253ZM410.258 543.08C412.178 545.5 415.207 548.256 416.599 550.91C422.443 549.151 429.778 550.045 435.883 549.719C436.087 543.734 436.122 537.85 435.504 531.885C424.922 531.334 417.192 535.665 410.258 543.08Z"/>
	<path fill="white" transform="scale(2.37667 2.37667)" d="M396.957 517.299C399.178 516.896 401.185 515.846 403.199 514.875C404.611 516.368 405.918 517.801 407.082 519.504C405.248 525.094 403.724 525.45 399.695 528.764C398.131 526.941 396.146 525.602 394.6 523.718C395.561 521.59 396.299 519.537 396.957 517.299Z"/>
	<path fill="white" transform="scale(2.37667 2.37667)" d="M476.735 306.419C484.406 306.537 492.437 306.365 499.977 307.888C501.319 312.425 503.637 316.961 505.287 321.454C515.754 349.961 532.592 401.011 560.013 416.968C530.183 413.018 518.162 408.875 495.073 385.801C493.062 386.024 490.985 386.01 489.268 387.164L488.671 387.561C487.411 385.199 482.385 350.566 480.97 343.367C480.487 340.753 479.398 338.545 477.93 336.356L478.04 332.839C478.85 325.956 483.62 308.381 476.735 306.419Z"/>
	<path fill="white" transform="scale(2.37667 2.37667)" d="M331.308 709.785C349.907 720.041 402.423 689.265 419.418 689.619C429.587 689.831 439.335 701.213 447.077 706.533C412.026 712.59 386.354 727.767 360.189 751.097C357.364 753.616 350.35 757.062 349.264 760.638C339.426 757.428 333.383 764.435 328.014 763.083C318.407 760.663 327.714 720.366 331.308 709.785Z"/>
	<path fill="white" transform="scale(2.37667 2.37667)" d="M502.818 706.915C533.584 668.09 586.044 713.598 626.124 713.777C629.984 722.766 637.984 759.248 631.132 760.639C623.455 762.197 608.402 756.711 598.566 756.428C582.556 729.347 531.05 713.18 502.818 706.915Z"/>
	<path fill="white" transform="scale(2.37667 2.37667)" d="M554.068 500.021C554.085 502.085 554.068 504.027 553.69 506.067C549.908 505.654 546.319 502.261 543.272 500.065L554.068 500.021Z"/>
	<path fill="white" transform="scale(2.37667 2.37667)" d="M463.396 507.671C469.804 507.613 470.505 509.628 472.716 515.185C469.216 514.887 463.407 513.282 460.387 512.037L460.697 511.725C461.927 510.467 463.062 509.511 463.396 507.671Z"/>
	<path fill="white" transform="scale(2.37667 2.37667)" d="M451.185 473.96L458.183 474.291C464.631 485.423 463.566 485.504 451.216 489.044C449.774 488.029 449.197 484.796 448.646 483.076C449.866 480.017 450.488 477.171 451.185 473.96Z"/>
</svg>
